<mxfile host="app.diagrams.net" modified="2023-07-20T03:19:39.427Z" agent="Mozilla/5.0 (Macintosh; Intel Mac OS X 10_15_7) AppleWebKit/537.36 (KHTML, like Gecko) Chrome/114.0.0.0 Safari/537.36" version="21.6.3" etag="xzNTbosspznzlpiC6QeT" type="github">
  <diagram name="페이지-1" id="uPBpQ_hKDM6IujzNUbJH">
    <mxGraphModel>
      <root>
        <mxCell id="0" />
        <mxCell id="1" parent="0" />
      </root>
    </mxGraphModel>
  </diagram>
</mxfile>
